<svg width="16" height="16" viewBox="0 0 16 16" fill="none" xmlns="http://www.w3.org/2000/svg">
<path d="M14.3896 7.69326C14.3918 9.02238 13.9965 10.3218 13.2545 11.4245C12.6425 12.3372 11.8151 13.085 10.8455 13.6019C9.87577 14.1188 8.79366 14.3888 7.69481 14.3881C6.59596 14.3888 5.51385 14.1188 4.54416 13.6019C3.57448 13.085 2.74708 12.3372 2.13514 11.4245C1.55249 10.556 1.18143 9.56302 1.0517 8.52523C0.921975 7.48745 1.03719 6.43371 1.38811 5.44848C1.73903 4.46325 2.3159 3.57394 3.07247 2.85184C3.82903 2.12974 4.74426 1.59493 5.74477 1.2903C6.74528 0.985661 7.80324 0.919669 8.83386 1.09761C9.86447 1.27555 10.8391 1.69247 11.6795 2.31496C12.5199 2.93744 13.2028 3.74817 13.6735 4.68216C14.1441 5.61614 14.3894 6.6474 14.3896 7.69326Z" stroke="black" stroke-width="1.43024"/>
<path d="M8.81051 5.46169C8.81051 5.75762 8.69295 6.04143 8.4837 6.25068C8.27444 6.45993 7.99063 6.57749 7.69471 6.57749V7.32136C7.93892 7.32136 8.18074 7.27326 8.40637 7.1798C8.632 7.08634 8.837 6.94936 9.00969 6.77668C9.18238 6.60399 9.31936 6.39898 9.41282 6.17336C9.50627 5.94773 9.55437 5.70591 9.55437 5.46169H8.81051ZM7.69471 6.57749C7.39878 6.57749 7.11497 6.45993 6.90571 6.25068C6.69646 6.04143 6.5789 5.75762 6.5789 5.46169H5.83504C5.83504 5.70591 5.88314 5.94773 5.97659 6.17336C6.07005 6.39898 6.20703 6.60399 6.37972 6.77668C6.72848 7.12543 7.20149 7.32136 7.69471 7.32136V6.57749ZM6.5789 5.46169C6.5789 5.16576 6.69646 4.88195 6.90571 4.6727C7.11497 4.46345 7.39878 4.34589 7.69471 4.34589V3.60202C7.20149 3.60202 6.72848 3.79795 6.37972 4.1467C6.03096 4.49546 5.83504 4.96847 5.83504 5.46169H6.5789ZM7.69471 4.34589C7.99063 4.34589 8.27444 4.46345 8.4837 4.6727C8.69295 4.88195 8.81051 5.16576 8.81051 5.46169H9.55437C9.55437 4.96847 9.35845 4.49546 9.00969 4.1467C8.66093 3.79795 8.18792 3.60202 7.69471 3.60202V4.34589ZM2.61111 12.0494L2.25405 11.9438L2.19678 12.1379L2.32844 12.2919L2.61111 12.0494ZM12.7783 12.0494L13.061 12.2919L13.1926 12.1379L13.1346 11.9438L12.7783 12.0494ZM5.4631 10.2968H9.92631V9.55296H5.4631V10.2968ZM5.4631 9.55296C4.74224 9.5531 4.04067 9.78582 3.46265 10.2166C2.88464 10.6473 2.46029 11.253 2.25405 11.9438L2.96742 12.1558C3.12799 11.6186 3.45757 11.1476 3.90719 10.8127C4.3568 10.4778 4.90247 10.2969 5.4631 10.2968V9.55296ZM7.69471 14.0162C6.78218 14.0171 5.8803 13.8201 5.05132 13.4387C4.22233 13.0573 3.48596 12.5005 2.89304 11.8069L2.32844 12.2919C2.99127 13.0668 3.81427 13.6888 4.74071 14.1149C5.66715 14.541 6.67497 14.7611 7.69471 14.76V14.0162ZM9.92631 10.2968C10.487 10.2969 11.0328 10.4779 11.4824 10.813C11.932 11.148 12.2615 11.6192 12.422 12.1565L13.1346 11.9438C12.9284 11.253 12.5048 10.6473 11.9268 10.2166C11.3487 9.78582 10.6472 9.5531 9.92631 9.55296V10.2968ZM12.4964 11.8069C11.9034 12.5005 11.1671 13.0573 10.3381 13.4387C9.50911 13.8201 8.60723 14.0171 7.69471 14.0162V14.76C8.71444 14.7611 9.72226 14.541 10.6487 14.1149C11.5751 13.6888 12.3981 13.0668 13.061 12.2919L12.4964 11.8069Z" fill="black"/>
<path d="M8.81051 5.46169C8.81051 5.75762 8.69295 6.04143 8.4837 6.25068C8.27444 6.45993 7.99063 6.57749 7.69471 6.57749M8.81051 5.46169H9.55437M8.81051 5.46169C8.81051 5.16576 8.69295 4.88195 8.4837 4.6727C8.27444 4.46345 7.99063 4.34589 7.69471 4.34589M7.69471 6.57749V7.32136M7.69471 6.57749C7.39878 6.57749 7.11497 6.45993 6.90571 6.25068C6.69646 6.04143 6.5789 5.75762 6.5789 5.46169M7.69471 7.32136C7.93892 7.32136 8.18074 7.27326 8.40637 7.1798C8.632 7.08634 8.837 6.94936 9.00969 6.77668C9.18238 6.60399 9.31936 6.39898 9.41282 6.17336C9.50627 5.94773 9.55437 5.70591 9.55437 5.46169M7.69471 7.32136C7.20149 7.32136 6.72848 7.12543 6.37972 6.77668C6.20703 6.60399 6.07005 6.39898 5.97659 6.17336C5.88314 5.94773 5.83504 5.70591 5.83504 5.46169M9.55437 5.46169C9.55437 4.96847 9.35845 4.49546 9.00969 4.1467C8.66093 3.79795 8.18792 3.60202 7.69471 3.60202M6.5789 5.46169H5.83504M6.5789 5.46169C6.5789 5.16576 6.69646 4.88195 6.90571 4.6727C7.11497 4.46345 7.39878 4.34589 7.69471 4.34589M5.83504 5.46169C5.83504 4.96847 6.03096 4.49546 6.37972 4.1467C6.72848 3.79795 7.20149 3.60202 7.69471 3.60202M7.69471 4.34589V3.60202M2.25405 11.9438L2.61111 12.0494L2.32844 12.2919M2.25405 11.9438L2.19678 12.1379L2.32844 12.2919M2.25405 11.9438C2.46029 11.253 2.88464 10.6473 3.46265 10.2166C4.04067 9.78582 4.74225 9.5531 5.4631 9.55296M2.25405 11.9438L2.96742 12.1558C3.12799 11.6186 3.45757 11.1476 3.90719 10.8127C4.3568 10.4778 4.90247 10.2969 5.4631 10.2968M2.32844 12.2919L2.89304 11.8069C3.48596 12.5005 4.22233 13.0573 5.05132 13.4387C5.8803 13.8201 6.78218 14.0171 7.69471 14.0162M2.32844 12.2919C2.99127 13.0668 3.81427 13.6888 4.74071 14.1149C5.66715 14.541 6.67497 14.7611 7.69471 14.76M13.061 12.2919L12.7783 12.0494L13.1346 11.9438M13.061 12.2919L13.1926 12.1379L13.1346 11.9438M13.061 12.2919C12.3981 13.0668 11.5751 13.6888 10.6487 14.1149C9.72226 14.541 8.71444 14.7611 7.69471 14.76M13.061 12.2919L12.4964 11.8069C11.9034 12.5005 11.1671 13.0573 10.3381 13.4387C9.50911 13.8201 8.60723 14.0171 7.69471 14.0162M13.1346 11.9438L12.422 12.1565C12.2615 11.6192 11.932 11.148 11.4824 10.813C11.0328 10.4779 10.487 10.2969 9.92631 10.2968M13.1346 11.9438C12.9284 11.253 12.5048 10.6473 11.9268 10.2166C11.3487 9.78582 10.6472 9.5531 9.92631 9.55296M5.4631 10.2968H9.92631M5.4631 10.2968V9.55296M9.92631 10.2968V9.55296M9.92631 9.55296H5.4631M7.69471 14.0162V14.76" stroke="black" stroke-width="0.715119"/>
</svg>
