<svg width="13" height="15" viewBox="0 0 13 15" fill="none" xmlns="http://www.w3.org/2000/svg">
<path d="M9.9375 1.25H4C2.61929 1.25 1.5 2.36929 1.5 3.75V11.25C1.5 12.6307 2.61929 13.75 4 13.75H9.9375C11.3182 13.75 12.4375 12.6307 12.4375 11.25V3.75C12.4375 2.36929 11.3182 1.25 9.9375 1.25Z" stroke="black" stroke-width="0.9375" stroke-linecap="round" stroke-linejoin="round"/>
<path d="M5.61875 8.5875C5.22563 8.85125 4.19563 9.38875 4.82313 10.0612C5.12938 10.39 5.47125 10.625 5.9 10.625H8.35C8.77875 10.625 9.12063 10.39 9.42688 10.0612C10.0544 9.38875 9.02437 8.85125 8.63125 8.58813C8.18688 8.28638 7.66213 8.12505 7.125 8.12505C6.58787 8.12505 6.06312 8.28638 5.61875 8.58813M2.125 3.75H0.5625M2.125 7.5H0.5625M2.125 11.25H0.5625M8.375 5.625C8.375 5.95652 8.2433 6.27446 8.00888 6.50888C7.77446 6.7433 7.45652 6.875 7.125 6.875C6.79348 6.875 6.47554 6.7433 6.24112 6.50888C6.0067 6.27446 5.875 5.95652 5.875 5.625C5.875 5.29348 6.0067 4.97554 6.24112 4.74112C6.47554 4.5067 6.79348 4.375 7.125 4.375C7.45652 4.375 7.77446 4.5067 8.00888 4.74112C8.2433 4.97554 8.375 5.29348 8.375 5.625Z" stroke="black" stroke-width="0.9375" stroke-linecap="round" stroke-linejoin="round"/>
</svg>
